<svg width="59" height="87" viewBox="0 0 59 87" fill="none" xmlns="http://www.w3.org/2000/svg">
<path d="M55.0135 44.704C55.0135 49.824 54.0962 54.112 52.2615 57.568C50.4695 61.024 47.8882 63.6267 44.5175 65.376C41.1468 67.1253 37.0722 68 32.2935 68H20.0055V22.304H33.5735C37.9682 22.304 41.7655 23.1573 44.9655 24.864C48.1655 26.5707 50.6402 29.088 52.3895 32.416C54.1388 35.7013 55.0135 39.7973 55.0135 44.704ZM47.5895 44.896C47.5895 41.056 47.0348 37.8987 45.9255 35.424C44.8162 32.9493 43.1735 31.1147 40.9975 29.92C38.8642 28.7253 36.2402 28.128 33.1255 28.128H27.1095V62.176H32.1015C37.2642 62.176 41.1255 60.7253 43.6855 57.824C46.2882 54.9227 47.5895 50.6133 47.5895 44.896Z" fill="#8A42DB"/>
<path d="M9.5 22H2L15 44L1 67.5H8.5L19.5 48.5V39L9.5 22Z" fill="#8A42DB" stroke="#8957D6"/>
</svg>
