<svg width="203" height="93" viewBox="0 0 203 93" fill="none" xmlns="http://www.w3.org/2000/svg">
<rect x="1.25" y="1.25" width="200.5" height="90.5" stroke="#8A42DB" stroke-width="1.5"/>
<path d="M62.4668 70H54.4028L43.7788 50.928L32.9628 70H25.3468L39.6188 46.256L26.2428 24.304H34.1148L43.9708 41.776L53.8268 24.304H61.4428L48.0668 46.32L62.4668 70ZM103.232 46.704C103.232 51.824 102.315 56.112 100.48 59.568C98.6883 63.024 96.1069 65.6267 92.7363 67.376C89.3656 69.1253 85.2909 70 80.5123 70H68.2243V24.304H81.7923C86.1869 24.304 89.9843 25.1573 93.1843 26.864C96.3843 28.5707 98.8589 31.088 100.608 34.416C102.358 37.7013 103.232 41.7973 103.232 46.704ZM95.8083 46.896C95.8083 43.056 95.2536 39.8987 94.1443 37.424C93.0349 34.9493 91.3923 33.1147 89.2163 31.92C87.0829 30.7253 84.4589 30.128 81.3443 30.128H75.3283V64.176H80.3203C85.4829 64.176 89.3443 62.7253 91.9043 59.824C94.5069 56.9227 95.8083 52.6133 95.8083 46.896ZM136.733 70H112.349V24.304H136.733V30.192H119.453V43.248H135.709V49.072H119.453V64.048H136.733V70ZM177.787 24.304L162.747 70H155.195L140.219 24.304H147.707L156.475 52.976C156.816 54 157.136 55.1093 157.435 56.304C157.776 57.456 158.075 58.608 158.331 59.76C158.629 60.912 158.843 62 158.971 63.024C159.141 62 159.355 60.912 159.611 59.76C159.867 58.608 160.165 57.456 160.507 56.304C160.848 55.1093 161.168 53.9787 161.467 52.912L170.235 24.304H177.787Z" fill="url(#paint0_linear_517_65)"/>
<defs>
<linearGradient id="paint0_linear_517_65" x1="32.7757" y1="46.2294" x2="172.868" y2="46.2294" gradientUnits="userSpaceOnUse">
<stop stop-color="#8A42DB"/>
<stop offset="0.39" stop-color="#8957D6"/>
<stop offset="1" stop-color="#7DFFAF"/>
</linearGradient>
</defs>
</svg>
