<svg width="136" height="91" viewBox="0 0 136 91" fill="none" xmlns="http://www.w3.org/2000/svg">
<rect x="0.75" y="0.75" width="134.5" height="89.5" stroke="#8A42DB" stroke-width="1.5"/>
<path d="M65.4668 69.5H57.4028L46.7788 50.428L35.9628 69.5H28.3468L42.6188 45.756L29.2428 23.804H37.1148L46.9708 41.276L56.8268 23.804H64.4428L51.0668 45.82L65.4668 69.5ZM108.245 46.588C108.245 50.1293 107.818 53.3507 106.965 56.252C106.154 59.1107 104.895 61.5853 103.189 63.676C101.525 65.7667 99.4341 67.3667 96.9168 68.476C94.3994 69.5853 91.4768 70.14 88.1488 70.14C84.7354 70.14 81.7488 69.5853 79.1888 68.476C76.6714 67.324 74.5808 65.724 72.9167 63.676C71.2528 61.5853 70.0154 59.0893 69.2048 56.188C68.3941 53.2867 67.9888 50.0653 67.9888 46.524C67.9888 41.8307 68.7141 37.7347 70.1648 34.236C71.6581 30.7373 73.8981 28.0067 76.8848 26.044C79.8714 24.0813 83.6474 23.1 88.2128 23.1C92.6501 23.1 96.3408 24.0813 99.2848 26.044C102.271 27.964 104.511 30.6947 106.005 34.236C107.498 37.7347 108.245 41.852 108.245 46.588ZM75.4768 46.588C75.4768 50.2573 75.9034 53.4147 76.7568 56.06C77.6528 58.6627 79.0394 60.6893 80.9167 62.14C82.8368 63.548 85.2474 64.252 88.1488 64.252C91.0928 64.252 93.4821 63.548 95.3168 62.14C97.1941 60.6893 98.5594 58.6627 99.4128 56.06C100.309 53.4147 100.757 50.2573 100.757 46.588C100.757 41.084 99.7541 36.796 97.7488 33.724C95.7434 30.6093 92.5648 29.052 88.2128 29.052C85.2688 29.052 82.8368 29.756 80.9167 31.164C79.0394 32.572 77.6528 34.5773 76.7568 37.18C75.9034 39.7827 75.4768 42.9187 75.4768 46.588Z" fill="url(#paint0_linear_517_65)"/>
<defs>
<linearGradient id="paint0_linear_517_65" x1="32.4757" y1="45.7294" x2="108.968" y2="45.7294" gradientUnits="userSpaceOnUse">
<stop stop-color="#8A42DB"/>
<stop offset="0.39" stop-color="#8957D6"/>
<stop offset="1" stop-color="#7DFFAF"/>
</linearGradient>
</defs>
</svg>
